<svg version="1.1" id="Layer_1" xmlns="http://www.w3.org/2000/svg" xmlns:xlink="http://www.w3.org/1999/xlink" x="0px" y="0px"
	 width="100%" viewBox="0 0 1024 1024" enable-background="new 0 0 1024 1024" xml:space="preserve">
<path fill="#000000" opacity="1.000000" stroke="none" 
	d="
M522.000000,329.052429 
	C559.328125,329.067657 596.156250,329.052887 632.984253,329.129517 
	C638.464966,329.140930 643.972656,329.254303 649.352600,330.611359 
	C668.603394,335.467163 681.264038,351.481140 681.280396,371.372986 
	C681.339233,442.862915 681.022034,514.354919 681.501282,585.841736 
	C681.660706,609.629272 662.956299,629.360779 637.833069,629.259949 
	C590.507202,629.070068 543.179749,629.289368 495.853577,629.137695 
	C491.109131,629.122437 487.781586,630.592468 484.444122,633.865479 
	C471.716766,646.346863 458.718872,658.552490 445.811798,670.850342 
	C444.969116,671.653198 444.087799,672.432678 443.140533,673.104675 
	C441.684143,674.137817 440.293182,675.645386 438.230103,674.446106 
	C436.293518,673.320251 436.505341,671.410645 436.513306,669.570984 
	C436.560944,658.573364 436.633270,647.575745 436.622009,636.578186 
	C436.614807,629.557739 436.377106,629.381348 429.240540,629.306885 
	C410.076355,629.106812 395.311584,618.577881 389.110535,600.557373 
	C388.255585,598.072937 387.510925,595.713867 384.430634,595.480225 
	C381.119812,595.229187 380.817780,592.869263 381.041260,590.465027 
	C381.295288,587.731934 379.620209,583.947815 383.768158,582.882629 
	C386.369110,582.214722 386.839264,580.824219 386.791229,578.605835 
	C386.744446,576.444946 386.469360,574.493591 383.748230,574.337158 
	C380.955536,574.176514 380.441101,572.254639 380.766357,570.150146 
	C381.232788,567.132385 378.778564,562.931702 383.131439,561.374390 
	C388.637299,559.404602 386.496002,555.096802 386.455292,551.687622 
	C386.412048,548.072571 382.915833,548.621399 380.661896,548.648621 
	C377.540771,548.686340 376.409180,547.537415 376.652985,544.549622 
	C376.788086,542.893677 376.770874,541.214050 376.677429,539.553223 
	C376.506165,536.508850 377.622070,534.592224 380.915131,534.909851 
	C385.963501,535.396851 386.771912,532.413269 386.624054,528.400574 
	C386.172485,516.147888 386.549194,503.882507 385.703339,491.626160 
	C385.166687,483.850006 386.461273,476.043762 386.893555,468.270142 
	C387.226074,462.290802 383.400177,457.644989 383.721130,451.972626 
	C383.870270,449.337585 383.907043,446.979828 385.594055,444.493011 
	C388.871704,439.661499 386.469299,435.139435 380.730408,434.320404 
	C380.071991,434.226440 379.134064,434.419098 378.790375,434.048248 
	C374.980988,429.937988 378.296448,425.183868 377.733917,420.746735 
	C377.439148,418.421417 378.796051,416.796600 381.254395,416.913818 
	C384.903656,417.087891 386.347931,415.288757 386.574707,411.907928 
	C386.798737,408.568268 386.014496,406.304321 382.332977,405.078033 
	C379.799500,404.234161 377.446869,403.122070 374.710114,403.314453 
	C372.006134,403.504486 370.663025,402.315979 370.777771,399.519775 
	C370.852875,397.690338 370.834564,395.851746 370.750488,394.022217 
	C370.614136,391.055939 371.994629,389.689087 374.930817,389.826416 
	C375.096893,389.834198 375.264404,389.827667 375.430511,389.816681 
	C386.555054,389.080505 389.855896,383.811035 385.789795,373.056427 
	C384.191498,368.828949 385.084320,364.515594 384.963165,360.236359 
	C384.933289,359.182129 385.992462,358.641418 386.506042,357.861786 
	C395.660004,343.965179 405.001343,330.390656 424.035767,329.657990 
	C456.517334,328.407745 489.012177,329.294495 522.000000,329.052429 
M537.676819,392.812408 
	C505.595245,370.038727 466.376831,381.499817 454.933502,397.049133 
	C457.701935,398.095093 460.555695,397.578339 463.339325,397.693909 
	C465.329590,397.776489 466.337677,398.573914 466.673370,400.586975 
	C468.138214,409.371643 466.308044,411.554474 457.475281,411.359863 
	C456.808899,411.345154 456.142029,411.302155 455.476318,411.316559 
	C453.331543,411.362915 452.595459,410.254364 452.585876,408.202576 
	C452.573059,405.457611 453.089142,402.632904 452.081390,399.912659 
	C449.665741,400.238708 448.685822,401.950684 447.657715,403.342957 
	C440.619141,412.874542 435.842529,423.399719 434.330475,435.236908 
	C433.268890,443.547760 433.349701,443.539490 441.861877,443.826904 
	C443.783081,443.891785 446.486633,443.348846 446.751923,446.028076 
	C447.191589,450.467865 447.981720,455.238220 446.183716,459.346710 
	C444.782135,462.549347 440.649078,460.323090 437.935455,461.384918 
	C437.640594,461.500305 437.398712,461.751038 436.979980,462.046326 
	C436.979980,464.920197 437.177338,467.912476 436.932465,470.868073 
	C436.589020,475.012878 438.107910,476.402252 442.356720,476.195679 
	C450.282043,475.810425 450.294586,476.053284 450.292633,483.997803 
	C450.292389,484.997559 450.263977,485.997498 450.276306,486.997040 
	C450.304504,489.279022 449.172058,490.347717 446.909088,490.314301 
	C445.243073,490.289703 443.558533,490.160248 441.913361,490.348877 
	C437.684296,490.833771 436.271942,488.933472 436.564819,484.877563 
	C436.723480,482.680634 437.373962,479.958649 434.522888,478.558472 
	C434.038849,479.105072 433.669952,479.325378 433.632385,479.592255 
	C431.703644,493.307404 438.873260,506.296478 436.890167,520.028809 
	C436.857025,520.258240 437.199951,520.655396 437.462830,520.797058 
	C441.630920,523.043518 440.211578,527.206909 440.754272,530.633972 
	C441.161194,533.203247 440.077698,534.936096 437.085236,534.384521 
	C432.986816,533.628967 430.971680,535.706543 429.701172,539.306519 
	C425.794861,550.375061 418.097443,558.606201 409.363068,566.019104 
	C407.511078,567.590881 405.581909,569.071838 403.485657,570.757629 
	C404.381317,571.453003 404.709229,571.875366 405.125061,571.996643 
	C406.076233,572.274231 407.070282,572.570129 408.047089,572.570618 
	C432.993378,572.583618 457.990356,573.815247 482.573975,567.713135 
	C531.816895,555.489990 569.412720,517.070801 567.952148,458.995697 
	C567.291138,432.712067 559.861450,409.873688 537.676819,392.812408 
M582.208984,380.870636 
	C579.811096,386.761108 579.486267,392.963806 583.005249,398.146637 
	C586.923462,403.917419 589.741943,409.427490 587.544922,416.502228 
	C587.417236,416.913452 588.101624,417.576874 588.475220,418.242523 
	C589.448730,417.937317 590.436279,417.918152 590.969727,417.416290 
	C597.427429,411.341125 605.291443,411.236969 613.408875,411.859283 
	C616.219543,412.074738 619.069458,411.906372 621.894958,411.774628 
	C633.050720,411.254364 642.592407,402.684021 643.809509,392.154724 
	C645.168396,380.399231 638.380798,370.495148 626.835632,367.381805 
	C619.787720,365.481262 612.591919,366.488922 605.462524,366.356110 
	C594.992676,366.161041 587.253113,370.744415 582.208984,380.870636 
z"/>
<path fill="#000000" opacity="1.000000" stroke="none" 
	d="
M365.830566,466.631317 
	C369.761108,466.255859 371.081360,467.920654 370.998932,471.259033 
	C370.624878,486.413452 373.609406,484.124054 357.943085,484.320648 
	C354.368988,484.365509 353.120361,482.930725 353.612854,479.574615 
	C353.660492,479.249908 353.626831,478.913147 353.629150,478.581970 
	C353.711731,466.732483 353.711670,466.732483 365.830566,466.631317 
z"/>
<path fill="#000000" opacity="1.000000" stroke="none" 
	d="
M347.634644,528.760376 
	C347.626221,518.067932 347.626221,518.067932 357.771759,517.342834 
	C364.095398,516.890869 364.258789,517.043884 364.470184,523.614685 
	C364.810822,534.204895 364.807129,534.087341 354.020660,534.428162 
	C350.091614,534.552368 346.806946,534.611633 347.634644,528.760376 
z"/>
<path fill="#000000" opacity="1.000000" stroke="none" 
	d="
M374.102997,501.823303 
	C369.568909,503.269501 365.280334,501.940430 361.018005,502.326385 
	C360.700073,502.355164 360.208954,502.345734 360.065674,502.154144 
	C356.987183,498.036957 359.241425,493.318146 358.673584,488.901886 
	C358.307037,486.051239 360.767456,486.071350 362.793732,485.925110 
	C374.884918,485.052460 375.457397,485.581787 374.988403,497.624512 
	C374.937653,498.927887 374.595337,500.219910 374.102997,501.823303 
z"/>
<path fill="#000000" opacity="1.000000" stroke="none" 
	d="
M342.314423,430.865723 
	C342.449188,433.988678 341.347504,435.171661 338.549713,435.381226 
	C328.207825,436.156067 325.810150,433.468018 327.656647,422.957153 
	C327.961517,421.221619 328.675568,420.211731 330.427643,420.001831 
	C330.758148,419.962219 331.090424,419.937927 331.421082,419.899658 
	C341.657928,418.714661 342.323090,419.354706 342.314423,430.865723 
z"/>
<path fill="#000000" opacity="1.000000" stroke="none" 
	d="
M316.490295,537.706238 
	C313.442932,533.896606 315.032837,529.841553 314.960297,525.973450 
	C314.936127,524.683472 316.045135,523.976318 317.346893,523.863464 
	C318.339447,523.777466 319.338257,523.745056 320.334961,523.727966 
	C328.376465,523.589783 331.470184,528.603638 328.062164,536.170959 
	C327.412231,537.614136 326.256805,538.098755 324.870758,538.097839 
	C322.215973,538.096130 319.561218,537.969238 316.490295,537.706238 
z"/>
<path fill="#000000" opacity="1.000000" stroke="none" 
	d="
M332.666260,443.726624 
	C335.146118,447.458832 333.993042,451.297913 333.907745,455.027985 
	C333.878693,456.298615 332.887848,457.070587 331.558044,457.189972 
	C330.897095,457.249329 330.231720,457.260986 329.568115,457.288910 
	C320.233307,457.681854 317.914642,454.641296 320.429321,445.507538 
	C320.964966,443.561981 322.304047,443.382812 323.841949,443.391296 
	C326.659760,443.406830 329.477142,443.497864 332.666260,443.726624 
z"/>
<path fill="#000000" opacity="1.000000" stroke="none" 
	d="
M377.955261,503.935791 
	C384.102081,504.364502 384.096252,504.724640 384.186432,512.793762 
	C384.241699,517.736389 381.467834,518.262268 377.774841,517.983093 
	C375.383179,517.802307 371.968109,519.136047 370.913483,516.518188 
	C369.505646,513.023682 369.922943,508.830963 371.146973,505.312714 
	C372.028076,502.780243 375.280457,504.147766 377.955261,503.935791 
z"/>
<path fill="#000000" opacity="1.000000" stroke="none" 
	d="
M336.133118,402.012878 
	C339.092896,402.395447 342.649811,400.685120 343.833282,403.604431 
	C345.242523,407.080719 345.546295,411.667816 343.705566,414.717682 
	C341.626160,418.163086 337.024628,416.001831 333.534790,416.143524 
	C330.687744,416.259094 330.724976,413.918457 330.701508,411.880493 
	C330.682373,410.221863 330.818604,408.551392 330.666809,406.906403 
	C330.319794,403.145294 332.165283,401.765686 336.133118,402.012878 
z"/>
<path fill="#000000" opacity="1.000000" stroke="none" 
	d="
M342.688324,391.486572 
	C339.681061,387.121002 341.216400,382.565857 341.166962,378.182037 
	C341.146484,376.371521 342.769135,375.815399 344.414062,375.821106 
	C346.911133,375.829803 349.412445,375.809753 351.903473,375.951324 
	C353.587646,376.046997 355.478607,376.324005 355.431702,378.586273 
	C355.391388,380.531097 353.873505,381.347015 352.142670,381.818512 
	C350.531067,382.257477 347.949280,381.181458 347.655823,383.791748 
	C347.397736,386.087219 349.694794,386.497467 351.384094,387.140564 
	C352.549072,387.584045 353.547150,388.250366 353.429443,389.628754 
	C353.285370,391.316223 351.900421,391.759064 350.538727,391.796844 
	C348.054993,391.865845 345.565704,391.734436 342.688324,391.486572 
z"/>
<path fill="#000000" opacity="1.000000" stroke="none" 
	d="
M319.654907,498.162994 
	C320.561798,490.945160 325.784302,494.519867 329.094116,493.942444 
	C332.546051,493.340302 332.949188,496.077209 333.064117,498.796021 
	C333.398865,506.714783 329.231140,509.778259 321.717499,507.129150 
	C320.179474,506.586884 319.712219,505.528229 319.680206,504.108734 
	C319.639099,502.284515 319.655823,500.459045 319.654907,498.162994 
z"/>
<path fill="#000000" opacity="1.000000" stroke="none" 
	d="
M322.420166,482.721497 
	C319.561279,479.067963 320.549072,475.167786 321.094452,471.534515 
	C321.486450,468.922852 324.328033,469.707550 326.164398,469.781830 
	C328.544586,469.878113 331.993469,468.436951 333.070129,470.927246 
	C334.483307,474.195862 333.880188,478.111694 333.191406,481.708679 
	C332.926849,483.090271 331.501038,483.144989 330.315125,483.122101 
	C327.823608,483.073975 325.333130,482.972534 322.420166,482.721497 
z"/>
<path fill="#000000" opacity="1.000000" stroke="none" 
	d="
M289.274200,472.588684 
	C285.294769,469.425690 286.012756,464.986816 287.488861,462.023926 
	C288.991425,459.007935 293.653839,460.567169 296.864807,459.898071 
	C298.949371,459.463684 299.848938,461.919403 300.081085,464.116150 
	C300.889313,471.765015 300.211975,472.354645 289.274200,472.588684 
z"/>
<path fill="#000000" opacity="1.000000" stroke="none" 
	d="
M360.847778,577.592529 
	C357.665070,580.362671 354.048889,579.732788 351.169861,578.681946 
	C346.746368,577.067444 349.180389,572.661560 348.836609,569.455627 
	C348.558319,566.860474 350.428162,566.235779 352.686066,566.001404 
	C361.175293,565.120117 361.863647,566.000122 360.847778,577.592529 
z"/>
<path fill="#000000" opacity="1.000000" stroke="none" 
	d="
M375.171112,592.117310 
	C375.099335,599.880432 371.309265,602.471741 364.269073,600.127625 
	C361.690369,599.268921 362.057129,597.142761 361.938751,595.239624 
	C361.444122,587.288513 365.670471,584.273499 373.177460,587.110779 
	C375.481628,587.981628 375.126801,589.869507 375.171112,592.117310 
M367.701538,591.326721 
	C366.845978,593.108582 366.955597,594.639221 369.175629,595.063477 
	C370.517761,595.319885 371.448456,594.303223 371.359619,593.015747 
	C371.230499,591.144409 370.425018,589.786621 367.701538,591.326721 
z"/>
<path fill="#000000" opacity="1.000000" stroke="none" 
	d="
M361.954193,441.705872 
	C363.698914,442.951447 365.220367,443.902740 367.057068,445.051178 
	C364.671448,447.989502 361.590149,447.382721 358.930298,446.704468 
	C356.542542,446.095551 357.007141,443.520721 356.963959,441.577148 
	C356.695801,429.513519 356.707336,429.513275 369.395660,429.768799 
	C374.439545,429.870331 374.949249,430.661072 373.229614,435.716278 
	C362.099182,432.224579 359.943146,433.292480 361.954193,441.705872 
z"/>
<path fill="#000000" opacity="1.000000" stroke="none" 
	d="
M360.171509,549.483826 
	C363.438965,547.100525 366.869995,547.822632 370.073303,548.161438 
	C374.019226,548.578796 372.991547,552.018921 372.869019,554.493408 
	C372.763733,556.619080 373.906708,559.853333 370.770752,560.389343 
	C367.616791,560.928406 368.410736,557.483765 367.518829,555.747864 
	C367.299988,555.321838 366.921173,554.977966 366.696594,554.697205 
	C362.982788,554.660400 364.316101,559.468140 361.046356,559.939209 
	C359.136597,556.749084 359.825775,553.279175 360.171509,549.483826 
z"/>
<path fill="#000000" opacity="1.000000" stroke="none" 
	d="
M390.887695,339.044067 
	C390.947174,340.711243 391.066711,342.066986 389.628418,343.009918 
	C387.404236,342.110626 387.007355,339.951752 386.057495,337.759033 
	C388.037689,336.641449 389.663391,336.098022 390.887695,339.044067 
z"/>
<path fill="#000000" opacity="1.000000" stroke="none" 
	d="
M380.271179,346.870667 
	C381.320190,348.491974 382.044342,349.979980 379.780823,350.582550 
	C378.238007,350.993256 377.122162,350.053497 377.136200,348.455627 
	C377.152893,346.549500 377.640839,344.888885 380.271179,346.870667 
z"/>
<path fill="#000000" opacity="1.000000" stroke="none" 
	d="
M504.698639,459.863647 
	C509.785095,462.223175 512.566528,466.118958 513.566345,471.035095 
	C515.037964,478.270996 515.450867,485.557098 511.639465,492.359558 
	C506.453064,501.616150 494.728943,502.035706 489.421265,492.878540 
	C484.416565,484.244110 484.524597,475.036591 488.801300,466.149384 
	C491.773224,459.973541 497.262177,458.021454 504.698639,459.863647 
z"/>
<path fill="#000000" opacity="1.000000" stroke="none" 
	d="
M512.421570,437.566681 
	C512.191345,431.667755 513.442627,426.794891 519.131409,424.565338 
	C524.950684,422.284546 529.852844,424.425659 534.088318,428.484497 
	C537.129333,431.398712 539.379211,434.852875 540.615601,438.923798 
	C542.206909,444.162994 541.048645,449.271332 537.318176,452.064606 
	C533.027161,455.277588 528.266541,455.282928 523.690857,452.912567 
	C517.635376,449.775543 513.642578,444.876495 512.421570,437.566681 
z"/>
<path fill="#000000" opacity="1.000000" stroke="none" 
	d="
M458.652222,440.660706 
	C459.743683,434.785797 462.879791,430.576843 467.093170,427.163025 
	C472.181519,423.040192 478.186523,422.597260 482.752655,425.752411 
	C486.904419,428.621246 488.607727,434.657074 486.815918,440.586884 
	C485.202454,445.926575 481.813782,449.905487 476.935944,452.529816 
	C467.419159,457.649963 456.555206,451.147980 458.652222,440.660706 
z"/>
<path fill="#000000" opacity="1.000000" stroke="none" 
	d="
M455.802551,508.482941 
	C456.060883,510.728973 456.010895,512.571045 456.223969,514.382141 
	C456.765900,518.988770 454.796509,520.530640 450.229156,520.376282 
	C443.049774,520.133728 440.162689,515.901978 442.860260,508.904877 
	C443.266357,507.851471 443.944855,507.092773 444.985596,507.081696 
	C448.554871,507.043549 452.259064,505.764191 455.802551,508.482941 
z"/>
<path fill="#000000" opacity="1.000000" stroke="none" 
	d="
M436.680267,554.761230 
	C436.712891,547.651062 436.712891,547.651062 440.618896,547.235596 
	C440.610016,550.235046 439.315094,553.825195 442.686401,555.720093 
	C445.289490,557.183167 445.914673,553.304260 448.417847,553.161377 
	C449.795868,554.405762 450.084839,556.144592 449.342163,557.904602 
	C448.487000,559.931274 446.528992,559.142395 444.945007,559.193787 
	C443.616608,559.236877 442.255707,559.079163 440.964569,559.314392 
	C437.536163,559.939148 436.369781,558.387756 436.680267,554.761230 
z"/>
<path fill="#000000" opacity="1.000000" stroke="none" 
	d="
M612.084961,383.951172 
	C615.351685,384.552399 617.320862,385.968597 617.303772,389.233185 
	C617.291809,391.516632 616.065552,392.960754 614.087891,393.766785 
	C611.826904,394.688293 609.826904,393.986237 608.279541,392.236511 
	C605.739746,389.364594 607.046387,386.275421 612.084961,383.951172 
z"/>
<path fill="#000000" opacity="1.000000" stroke="none" 
	d="
M596.184326,393.977600 
	C593.053162,392.784027 591.352295,390.887512 591.991028,387.797424 
	C592.478210,385.440552 594.320068,384.198303 596.641907,383.992004 
	C599.114075,383.772278 600.884827,385.218231 601.550110,387.391754 
	C602.851379,391.643219 600.392334,393.442505 596.184326,393.977600 
z"/>
<path fill="#000000" opacity="1.000000" stroke="none" 
	d="
M623.129272,391.443695 
	C622.364319,388.639557 622.493652,386.402252 624.873474,384.932770 
	C626.769409,383.762115 628.690674,383.931427 630.477173,385.198761 
	C632.145020,386.381958 632.575378,388.107971 632.344116,390.046753 
	C632.125183,391.882294 631.001892,393.095490 629.394043,393.759979 
	C626.884033,394.797302 624.876465,393.915070 623.129272,391.443695 
z"/>
</svg>